<svg xmlns="http://www.w3.org/2000/svg" viewBox="0 0 438 250.29"><defs><style>.cls-1{fill:#0087e7;}</style></defs><g id="Camada_2" data-name="Camada 2"><g id="Camada_1-2" data-name="Camada 1"><circle class="cls-1" cx="219" cy="125.14" r="61.64"/><path class="cls-1" d="M393.64,0H44.36A44.36,44.36,0,0,0,0,44.36V205.93a44.37,44.37,0,0,0,44.36,44.36H393.64A44.37,44.37,0,0,0,438,205.93V44.36A44.36,44.36,0,0,0,393.64,0ZM219,214.33a89.19,89.19,0,1,1,89.19-89.19A89.19,89.19,0,0,1,219,214.33ZM328.27,72.92a18.37,18.37,0,1,1,18.36-18.36A18.36,18.36,0,0,1,328.27,72.92Z"/><circle class="cls-1" cx="219" cy="125.14" r="61.64"/><circle class="cls-1" cx="219" cy="125.14" r="61.64"/></g></g></svg>