<svg xmlns="http://www.w3.org/2000/svg" viewBox="0 0 1024 1024"><defs><style>.cls-1{fill:#fff;}</style></defs><g id="Camada_2" data-name="Camada 2"><g id="Camada_1-2" data-name="Camada 1"><path class="cls-1" d="M1022,196.09c-4-47.57-23.24-88.47-54.74-123.89C960.79,64.87,954,57.82,946,52,921.93,31,894.23,16.74,863.6,8a207.12,207.12,0,0,0-30.24-6.2C832.15,1.69,830,2.53,830,0H194c0,2.61-2.16,1.66-3.31,1.83Q84.94,17.55,29.79,109.09C14.63,134.19,5.6,161.58,1.89,190.7c-.17,1.3-.17,2.68-1.13,3.74,0,0-.25-.07-.36-.14A3.79,3.79,0,0,1,0,194V830c2.93.55,1.73,3,1.94,4.61,11.58,85.69,73,154.64,150.91,179,12,4.19,24.38,6.65,36.91,8.5,1.5.22,3.72-.65,4.24,1.92H830c.08-2.68,2.28-1.76,3.59-1.92,95.15-12.1,172.67-87.56,187.7-182.53.49-3.15-1-7.19,2.71-9.55V198C1022.15,198.6,1022.14,197.24,1022,196.09Zm-456.41,355c-.2.63-.31,1.28-.46,1.92-6.7,18.6-15.52,36-28.08,51.44-25.21,30.94-58.33,48.88-96.44,58.49-24.37,6.14-49.2,8.21-74.27,8.12-33.15-.1-66.31.05-99.46-.11-3.88,0-5,.94-5,4.92.14,45.32,0,90.63.17,136,0,4-.76,5.31-5.08,5.29q-53-.3-106,0c-4.15,0-5.2-1-5.19-5.17q.21-93,.08-185.93c0-2-.1-4-.15-6s.17-4,.17-6q0-109.21-.11-218.44c0-4.54,1.12-5.73,5.69-5.71,36.77.17,73.55.06,110.32,0,0-30.6.14-61.21,0-91.81,0-4.14,1-5.24,5.17-5.22,36,.18,72-.26,108,.21,40.2.53,79.13,7.33,114.73,27.26,42.37,23.71,68.86,59.72,80.12,106.69C579.83,468.67,578.1,510.12,565.63,551.09Zm301.8-142c-27.47,0-54.95.06-82.42.11-5.83-.06-11.65-.18-17.48-.18-39,0-77.95-.06-116.93.09-3.75,0-4.68-.95-4.67-4.69q.17-108.43,0-216.87c0-4.46,1.83-4.61,5.25-4.61q87,.12,173.9.06c2,0,4-.11,6-.18,12.32.06,24.64.23,37,.08,3.34,0,4.11,1,4.1,4.21q-.14,108.92,0,217.83C872.1,408.78,870.59,409.1,867.43,409.09Z"/><polygon class="cls-1" points="262.04 389.91 261.9 390.05 261.9 389.91 262.04 389.91"/><polygon class="cls-1" points="262.04 389.91 262.04 390.05 261.9 390.05 262.04 389.91"/><path class="cls-1" d="M465.57,509.69c-8.77,33-31.28,51.5-63.58,59.32a154.53,154.53,0,0,1-37,4q-48.72-.21-97.45.07c-4.76,0-5.6-1.46-5.59-5.82q.21-88.62.11-177.26c35.43,0,70.87-.12,106.3,0,18.63.08,36.83,2.8,54,10.66,27,12.39,41.54,33.9,45.65,62.86A115,115,0,0,1,465.57,509.69Z"/><path class="cls-1" d="M835.1,224.56c-.38,7.14-.21,14.3-.27,21.45-2.19,0-3.62,1.38-5.11,2.75-7.58,7-15.09,14-22.88,20.7-2.55,2.2-4.8,5.21-8.63,5.56-.06-4.66-.35-9.32-.12-14,.17-3.33-1-4.14-4.19-4.12q-34.92.19-69.85,0c-3.32,0-4.13,1-4.11,4.19q.19,34.94,0,69.85c0,3.24,1,4.52,4.09,4.24-.06,2.45-1.65,3.78-3.45,5.12-10.22,7.62-20.39,15.32-30.59,23-2,1.5-4.08,2.89-6.77,2.71-.06-10.32-.18-20.63-.18-30.95,0-36.78.05-73.56-.08-110.34,0-3.6.73-4.8,4.61-4.79q71.38.21,142.79,0C834,219.93,835.3,220.7,835.1,224.56Z"/><path class="cls-1" d="M835,368.93c0,2.41-.78,3.1-3.14,3.1q-73.95-.16-147.9-.22l-.78-.81v-5c2.69.18,4.76-1.21,6.77-2.71,10.2-7.66,20.37-15.36,30.59-23,1.8-1.34,3.39-2.67,3.45-5.12,23.14,0,46.29-.2,69.43-.07,3.73,0,4.72-.93,4.69-4.68-.15-18.48,0-37,.07-55.44,3.83-.35,6.08-3.36,8.63-5.56,7.79-6.7,15.3-13.74,22.88-20.7,1.49-1.37,2.92-2.74,5.11-2.75Q834.91,307.48,835,368.93Z"/><path class="cls-1" d="M684,371.81c-.64.1-.91-.16-.78-.81Z"/></g></g></svg>